<svg width="28" height="29" viewBox="0 0 28 29" fill="none" xmlns="http://www.w3.org/2000/svg">
<path d="M23.3333 26.1663H7C5.06701 26.1663 3.5 24.5994 3.5 22.6663V6.33301C3.5 4.40002 5.06701 2.83301 7 2.83301H23.3333C23.9777 2.83301 24.5 3.35535 24.5 3.99967V24.9997C24.5 25.644 23.9777 26.1663 23.3333 26.1663ZM22.1667 23.833V21.4997H7C6.35567 21.4997 5.83333 22.022 5.83333 22.6663C5.83333 23.3107 6.35567 23.833 7 23.833H22.1667ZM14 12.1663C15.2887 12.1663 16.3333 11.1217 16.3333 9.83301C16.3333 8.54434 15.2887 7.49967 14 7.49967C12.7113 7.49967 11.6667 8.54434 11.6667 9.83301C11.6667 11.1217 12.7113 12.1663 14 12.1663ZM10.5 16.833H17.5C17.5 14.9 15.933 13.333 14 13.333C12.0669 13.333 10.5 14.9 10.5 16.833Z" fill="#767676"/>
</svg>
